<svg xmlns="http://www.w3.org/2000/svg" xmlns:pardiag="http://parliamentdiagram.toolforge.org/2024/template" width="1615.0225" height="1674.2009" id="svg2" version="1.0">
  <circle r="45" pardiag:id="2581" id="path2581" cx="1275.5758057812504" cy="263.58111671874997"/>
  <circle r="45" pardiag:id="2591" id="path2591" cx="1275.5757057812502" cy="359.6361167187498"/>
  <circle r="45" pardiag:id="2597" id="path2597" cx="1275.5757057812502" cy="454.8776167187499"/>
  <circle r="45" pardiag:id="2617" id="path2617" cx="1275.5757057812502" cy="943.4227167187499"/>
  <circle r="45" pardiag:id="2619" id="path2619" cx="1275.5757057812502" cy="845.36381671875"/>
  <circle r="45" pardiag:id="2625" id="path2625" cx="1275.5757057812502" cy="748.35821671875"/>
  <circle r="45" pardiag:id="2639" id="path2639" cx="1275.5757057812502" cy="553.0617167187498"/>
  <circle r="45" pardiag:id="2645" id="path2645" cx="1275.5757057812502" cy="649.58471671875"/>
  <circle r="45" pardiag:id="2657" id="path2657" cx="1543.5820057812502" cy="1234.4454967187498"/>
  <circle r="45" pardiag:id="2659" id="path2659" cx="1567.5841057812504" cy="1139.76849671875"/>
  <circle r="45" pardiag:id="2661" id="path2661" cx="1471.5757057812502" cy="1139.1011167187498"/>
  <circle r="45" pardiag:id="2669" id="path2669" cx="1175.4064057812502" cy="260.41161671874977"/>
  <circle r="45" pardiag:id="2671" id="path2671" cx="1175.4063057812505" cy="356.46661671874983"/>
  <circle r="45" pardiag:id="2673" id="path2673" cx="1175.4063057812505" cy="451.7081167187499"/>
  <circle r="45" pardiag:id="2677" id="path2677" cx="1175.4063057812505" cy="842.19431671875"/>
  <circle r="45" pardiag:id="2679" id="path2679" cx="1175.4063057812505" cy="745.1887167187498"/>
  <circle r="45" pardiag:id="2681" id="path2681" cx="1175.4063057812505" cy="549.8922167187499"/>
  <circle r="45" pardiag:id="2683" id="path2683" cx="1175.4063057812505" cy="646.4152167187498"/>
  <circle r="45" pardiag:id="2685" id="path2685" cx="1569.8704057812502" cy="264.9826167187499"/>
  <circle r="45" pardiag:id="2687" id="path2687" cx="1569.8703057812504" cy="361.03761671875"/>
  <circle r="45" pardiag:id="2689" id="path2689" cx="1569.8703057812504" cy="456.27911671874983"/>
  <circle r="45" pardiag:id="2691" id="path2691" cx="1569.8703057812504" cy="944.8242167187499"/>
  <circle r="45" pardiag:id="2693" id="path2693" cx="1569.8703057812504" cy="846.7653167187499"/>
  <circle r="45" pardiag:id="2695" id="path2695" cx="1569.8703057812504" cy="749.7597167187499"/>
  <circle r="45" pardiag:id="2697" id="path2697" cx="1569.8703057812504" cy="554.4632167187498"/>
  <circle r="45" pardiag:id="2699" id="path2699" cx="1569.8703057812504" cy="650.9862167187499"/>
  <circle r="45" pardiag:id="2701" id="path2701" cx="1471.5758057812504" cy="266.41161671874977"/>
  <circle r="45" pardiag:id="2703" id="path2703" cx="1471.5757057812502" cy="362.46661671874983"/>
  <circle r="45" pardiag:id="2705" id="path2705" cx="1471.5757057812502" cy="457.7081167187499"/>
  <circle r="45" pardiag:id="2707" id="path2707" cx="1471.5757057812502" cy="946.25321671875"/>
  <circle r="45" pardiag:id="2709" id="path2709" cx="1471.5757057812502" cy="848.19431671875"/>
  <circle r="45" pardiag:id="2711" id="path2711" cx="1471.5757057812502" cy="751.1887167187498"/>
  <circle r="45" pardiag:id="2713" id="path2713" cx="1471.5757057812502" cy="555.8922167187499"/>
  <circle r="45" pardiag:id="2715" id="path2715" cx="1471.5757057812502" cy="652.4152167187498"/>
  <circle r="45" pardiag:id="2717" id="path2717" cx="1373.2812057812503" cy="264.98251671874993"/>
  <circle r="45" pardiag:id="2719" id="path2719" cx="1373.2811057812505" cy="361.03751671874977"/>
  <circle r="45" pardiag:id="2721" id="path2721" cx="1373.2811057812505" cy="456.27901671874986"/>
  <circle r="45" pardiag:id="2723" id="path2723" cx="1373.2811057812505" cy="944.8241167187499"/>
  <circle r="45" pardiag:id="2725" id="path2725" cx="1373.2811057812505" cy="846.7652167187499"/>
  <circle r="45" pardiag:id="2727" id="path2727" cx="1373.2811057812505" cy="749.75961671875"/>
  <circle r="45" pardiag:id="2729" id="path2729" cx="1373.2811057812505" cy="554.4631167187498"/>
  <circle r="45" pardiag:id="2731" id="path2731" cx="1373.2811057812505" cy="650.9861167187499"/>
  <circle r="45" pardiag:id="2733" id="path2733" cx="1569.8703057812504" cy="1041.3565167187498"/>
  <circle r="45" pardiag:id="2735" id="path2735" cx="1471.5757057812502" cy="1040.78551671875"/>
  <circle r="45" pardiag:id="2737" id="path2737" cx="1373.2811057812505" cy="1041.3564167187499"/>
  <circle r="45" pardiag:id="2829" id="path2829" cx="1570.02251421875" cy="164.56451671874981"/>
  <circle r="45" pardiag:id="2835" id="path2835" cx="1275.5757042187502" cy="164.36101671874997"/>
  <circle r="45" pardiag:id="2837" id="path2837" cx="905.1796942187499" cy="1221.52120671875"/>
  <circle r="45" pardiag:id="2841" id="path2841" cx="1372.89071421875" cy="163.79001671874983"/>
  <circle r="45" pardiag:id="2847" id="path2847" cx="1472.3171142187502" cy="164.36091671875"/>
  <circle r="45" pardiag:id="2849" id="path2849" cx="1174.8907042187502" cy="163.73891671874992"/>
  <circle r="45" pardiag:togglable="ceann_comhairle" id="path2853" cx="808.0147042187499" cy="45.000016718749976"/>
  <circle r="45" pardiag:id="2931" id="path2931" cx="1167.8061057812502" cy="1057.9554867187499"/>
  <circle r="45" pardiag:id="2933" id="path2933" cx="1090.2989057812501" cy="1134.12665671875"/>
  <circle r="45" pardiag:id="2935" id="path2935" cx="1273.6507057812505" cy="1037.9552267187498"/>
  <circle r="45" pardiag:id="2937" id="path2937" cx="1234.4810057812501" cy="1142.2990967187498"/>
  <circle r="45" pardiag:id="2939" id="path2939" cx="1155.3058057812505" cy="1211.9734167187498"/>
  <circle r="45" pardiag:id="2941" id="path2941" cx="975.9519057812503" cy="1305.6423967187498"/>
  <circle r="45" pardiag:id="2943" id="path2943" cx="861.1067057812501" cy="1330.81217671875"/>
  <circle r="45" pardiag:id="2945" id="path2945" cx="861.1067057812501" cy="1432.9953067187498"/>
  <circle r="45" pardiag:id="2947" id="path2947" cx="958.2840057812504" cy="1419.4934367187498"/>
  <circle r="45" pardiag:id="2949" id="path2949" cx="1048.9609057812504" cy="1391.8233967187498"/>
  <circle r="45" pardiag:id="2951" id="path2951" cx="1140.6374057812504" cy="1349.6520067187498"/>
  <circle r="45" pardiag:id="2953" id="path2953" cx="1226.4799057812502" cy="1296.6461267187499"/>
  <circle r="45" pardiag:id="2955" id="path2955" cx="1301.4879057812504" cy="1227.1389267187499"/>
  <circle r="45" pardiag:id="2957" id="path2957" cx="1372.9951057812505" cy="1139.29748671875"/>
  <circle r="45" pardiag:id="2959" id="path2959" cx="1437.5114057812502" cy="1240.6418567187498"/>
  <circle r="45" pardiag:id="2961" id="path2961" cx="1175.4067057812504" cy="945.9161167187498"/>
  <circle r="45" pardiag:id="2963" id="path2963" cx="1373.1612057812504" cy="1317.65842671875"/>
  <circle r="45" pardiag:id="2965" id="path2965" cx="1298.3181057812503" cy="1382.1650967187497"/>
  <circle r="45" pardiag:id="2967" id="path2967" cx="1207.1409057812502" cy="1429.8372767187498"/>
  <circle r="45" pardiag:id="2969" id="path2969" cx="1114.1297057812503" cy="1475.5083967187497"/>
  <circle r="45" pardiag:id="2971" id="path2971" cx="962.2850057812501" cy="1521.5116067187498"/>
  <circle r="45" pardiag:id="2973" id="path2973" cx="859.4399057812501" cy="1529.3466267187498"/>
  <circle r="45" pardiag:id="2975" id="path2975" cx="861.1067057812501" cy="1629.2008867187499"/>
  <circle r="45" pardiag:id="2977" id="path2977" cx="965.28560578125" cy="1623.0326967187498"/>
  <circle r="45" pardiag:id="2979" id="path2979" cx="1079.4633057812503" cy="1602.03002671875"/>
  <circle r="45" pardiag:id="2981" id="path2981" cx="1183.9743057812502" cy="1560.6931367187499"/>
  <circle r="45" pardiag:id="2983" id="path2983" cx="1278.3181057812503" cy="1517.3551767187498"/>
  <circle r="45" pardiag:id="2985" id="path2985" cx="1368.8280057812503" cy="1469.3498367187499"/>
  <circle r="45" pardiag:id="2987" id="path2987" cx="1444.0042057812502" cy="1406.51000671875"/>
  <circle r="45" pardiag:id="2989" id="path2989" cx="1507.6753057812502" cy="1328.50145671875"/>
  <circle r="45" pardiag:id="2991" id="path2991" cx="1005.4526057812503" cy="1185.6210267187498"/>
  <circle r="45" pardiag:id="2993" id="path2993" cx="1072.96300578125" cy="1267.29640671875"/>
  <circle r="45" pardiag:id="4304" id="path4304" cx="341.94670721875" cy="263.5808167187498"/>
  <circle r="45" pardiag:id="4306" id="path4306" cx="341.94680721875" cy="359.6358167187499"/>
  <circle r="45" pardiag:id="4308" id="path4308" cx="341.94680721875" cy="454.87731671874997"/>
  <circle r="45" pardiag:id="4310" id="path4310" cx="341.94680721875" cy="943.4223167187498"/>
  <circle r="45" pardiag:id="4312" id="path4312" cx="341.94680721875" cy="845.3634167187498"/>
  <circle r="45" pardiag:id="4314" id="path4314" cx="341.94680721875" cy="748.3578167187499"/>
  <circle r="45" pardiag:id="4316" id="path4316" cx="341.94680721875" cy="553.0614167187499"/>
  <circle r="45" pardiag:id="4318" id="path4318" cx="341.94680721875" cy="649.5843167187498"/>
  <circle r="45" pardiag:id="4320" id="path4320" cx="73.94050421874994" cy="1234.44509671875"/>
  <circle r="45" pardiag:id="4322" id="path4322" cx="49.93840421874995" cy="1139.7680967187498"/>
  <circle r="45" pardiag:id="4324" id="path4324" cx="145.9468042187499" cy="1139.10071671875"/>
  <circle r="45" pardiag:id="4326" id="path4326" cx="442.11610721875" cy="260.41131671874984"/>
  <circle r="45" pardiag:id="4328" id="path4328" cx="442.11620721875" cy="356.4663167187499"/>
  <circle r="45" pardiag:id="4330" id="path4330" cx="442.11620721875" cy="451.70781671874977"/>
  <circle r="45" pardiag:id="4332" id="path4332" cx="442.11620721875" cy="842.1939167187498"/>
  <circle r="45" pardiag:id="4334" id="path4334" cx="442.11620721875" cy="745.1883167187499"/>
  <circle r="45" pardiag:id="4336" id="path4336" cx="442.11620721875" cy="549.8919167187499"/>
  <circle r="45" pardiag:id="4338" id="path4338" cx="442.11620721875" cy="646.4148167187499"/>
  <circle r="45" pardiag:id="4340" id="path4340" cx="47.65210421874997" cy="264.98231671875"/>
  <circle r="45" pardiag:id="4342" id="path4342" cx="47.652204218749944" cy="361.0373167187498"/>
  <circle r="45" pardiag:id="4344" id="path4344" cx="47.652204218749944" cy="456.2788167187499"/>
  <circle r="45" pardiag:id="4346" id="path4346" cx="47.652204218749944" cy="944.82381671875"/>
  <circle r="45" pardiag:id="4348" id="path4348" cx="47.652204218749944" cy="846.76491671875"/>
  <circle r="45" pardiag:id="4350" id="path4350" cx="47.652204218749944" cy="749.7593167187498"/>
  <circle r="45" pardiag:id="4352" id="path4352" cx="47.652204218749944" cy="554.4629167187499"/>
  <circle r="45" pardiag:id="4354" id="path4354" cx="47.652204218749944" cy="650.9858167187498"/>
  <circle r="45" pardiag:id="4356" id="path4356" cx="145.94670421874991" cy="266.41131671874984"/>
  <circle r="45" pardiag:id="4358" id="path4358" cx="145.9468042187499" cy="362.4663167187499"/>
  <circle r="45" pardiag:id="4360" id="path4360" cx="145.9468042187499" cy="457.70781671874977"/>
  <circle r="45" pardiag:id="4362" id="path4362" cx="145.9468042187499" cy="946.2528167187498"/>
  <circle r="45" pardiag:id="4364" id="path4364" cx="145.9468042187499" cy="848.1939167187498"/>
  <circle r="45" pardiag:id="4366" id="path4366" cx="145.9468042187499" cy="751.1883167187499"/>
  <circle r="45" pardiag:id="4368" id="path4368" cx="145.9468042187499" cy="555.8919167187499"/>
  <circle r="45" pardiag:id="4370" id="path4370" cx="145.9468042187499" cy="652.4148167187499"/>
  <circle r="45" pardiag:id="4372" id="path4372" cx="244.24130421874997" cy="264.9822167187498"/>
  <circle r="45" pardiag:id="4374" id="path4374" cx="244.24140421874995" cy="361.03721671874985"/>
  <circle r="45" pardiag:id="4376" id="path4376" cx="244.24140421874995" cy="456.27871671874993"/>
  <circle r="45" pardiag:id="4378" id="path4378" cx="244.24140421874995" cy="944.8237167187498"/>
  <circle r="45" pardiag:id="4380" id="path4380" cx="244.24140421874995" cy="846.7648167187498"/>
  <circle r="45" pardiag:id="4382" id="path4382" cx="244.24140421874995" cy="749.7592167187498"/>
  <circle r="45" pardiag:id="4384" id="path4384" cx="244.24140421874995" cy="554.4628167187499"/>
  <circle r="45" pardiag:id="4386" id="path4386" cx="244.24140421874995" cy="650.9857167187498"/>
  <circle r="45" pardiag:id="4388" id="path4388" cx="47.652204218749944" cy="1041.35611671875"/>
  <circle r="45" pardiag:id="4390" id="path4390" cx="145.9468042187499" cy="1040.78511671875"/>
  <circle r="45" pardiag:id="4392" id="path4392" cx="244.24140421874995" cy="1041.3560167187497"/>
  <circle r="45" pardiag:id="4394" id="path4394" cx="47.50000578125014" cy="164.5642167187499"/>
  <circle r="45" pardiag:id="4396" id="path4396" cx="341.94690578125005" cy="164.3607167187498"/>
  <circle r="45" pardiag:id="4400" id="path4400" cx="244.63180578125002" cy="163.7897167187499"/>
  <circle r="45" pardiag:id="4402" id="path4402" cx="145.20540578124997" cy="164.36061671874984"/>
  <circle r="45" pardiag:id="4404" id="path4404" cx="442.63190578125" cy="163.73861671874977"/>
  <circle r="45" pardiag:id="4406" id="path4406" cx="449.71640721874996" cy="1057.95508671875"/>
  <circle r="45" pardiag:id="4408" id="path4408" cx="527.22360421875" cy="1134.12625671875"/>
  <circle r="45" pardiag:id="4410" id="path4410" cx="343.87180721874995" cy="1037.95482671875"/>
  <circle r="45" pardiag:id="4412" id="path4412" cx="383.04150721875" cy="1142.2986967187499"/>
  <circle r="45" pardiag:id="4414" id="path4414" cx="462.21670721875" cy="1211.97301671875"/>
  <circle r="45" pardiag:id="4416" id="path4416" cx="641.57060421875" cy="1305.6419967187499"/>
  <circle r="45" pardiag:id="4418" id="path4418" cx="756.4158042187499" cy="1330.81177671875"/>
  <circle r="45" pardiag:id="4420" id="path4420" cx="756.4158042187499" cy="1432.99490671875"/>
  <circle r="45" pardiag:id="4422" id="path4422" cx="659.2385042187499" cy="1419.4930367187499"/>
  <circle r="45" pardiag:id="4424" id="path4424" cx="568.56160421875" cy="1391.82299671875"/>
  <circle r="45" pardiag:id="4426" id="path4426" cx="476.88510721875" cy="1349.65160671875"/>
  <circle r="45" pardiag:id="4428" id="path4428" cx="391.04260721874994" cy="1296.6457267187498"/>
  <circle r="45" pardiag:id="4430" id="path4430" cx="316.0346042187499" cy="1227.1385267187497"/>
  <circle r="45" pardiag:id="4432" id="path4432" cx="244.5274042187499" cy="1139.29708671875"/>
  <circle r="45" pardiag:id="4434" id="path4434" cx="180.0111042187499" cy="1240.6414567187499"/>
  <circle r="45" pardiag:id="4436" id="path4436" cx="442.11580721875" cy="945.9157167187499"/>
  <circle r="45" pardiag:id="4438" id="path4438" cx="244.36130421874998" cy="1317.6580267187499"/>
  <circle r="45" pardiag:id="4440" id="path4440" cx="319.2044072187499" cy="1382.1646967187498"/>
  <circle r="45" pardiag:id="4442" id="path4442" cx="410.38160701874995" cy="1429.8368767187499"/>
  <circle r="45" pardiag:id="4444" id="path4444" cx="503.3928072187499" cy="1475.5079967187498"/>
  <circle r="45" pardiag:id="4446" id="path4446" cx="655.2375042187499" cy="1521.51120671875"/>
  <circle r="45" pardiag:id="4448" id="path4448" cx="758.0826042187499" cy="1529.34622671875"/>
  <circle r="45" pardiag:id="4450" id="path4450" cx="756.4158042187499" cy="1629.2004867187497"/>
  <circle r="45" pardiag:id="4452" id="path4452" cx="652.23690421875" cy="1623.0322967187499"/>
  <circle r="45" pardiag:id="4454" id="path4454" cx="538.05920421875" cy="1602.0296267187498"/>
  <circle r="45" pardiag:id="4456" id="path4456" cx="433.54820721875" cy="1560.69273671875"/>
  <circle r="45" pardiag:id="4458" id="path4458" cx="339.2044072187499" cy="1517.35477671875"/>
  <circle r="45" pardiag:id="4460" id="path4460" cx="248.69450421875" cy="1469.34943671875"/>
  <circle r="45" pardiag:id="4462" id="path4462" cx="173.5183042187499" cy="1406.5096067187499"/>
  <circle r="45" pardiag:id="4464" id="path4464" cx="109.84720421874994" cy="1328.5010567187499"/>
  <circle r="45" pardiag:id="4466" id="path4466" cx="612.0699042187499" cy="1185.62062671875"/>
  <circle r="45" pardiag:id="4468" id="path4468" cx="544.55950421875" cy="1267.29600671875"/>
</svg>
