<?xml version="1.0" encoding="UTF-8" standalone="no"?>
<svg xmlns:svg="http://www.w3.org/2000/svg"
     xmlns="http://www.w3.org/2000/svg" version="1.1"
     width="360" height="185">
    <!-- Created with the Wikimedia parliament diagram creator (http://parliamentarch.toolforge.org/archinputform.html) -->
    <g>
        <text x="180" y="180" 
              style="font-size:36px;font-weight:bold;text-align:center;text-anchor:middle;font-family:sans-serif">
            31
        </text>
        <g style="fill:#0000FF; stroke-width:0.00; stroke:#000000" 
           id="0_Democrats"> 
            <title>Democrats</title>            <circle cx="23.48" cy="162.50" r="14.00"/> 
            <circle cx="58.76" cy="162.50" r="14.00"/> 
            <circle cx="94.27" cy="162.50" r="14.00"/> 
            <circle cx="31.30" cy="128.09" r="14.00"/> 
            <circle cx="70.26" cy="125.56" r="14.00"/> 
            <circle cx="46.59" cy="96.28" r="14.00"/> 
            <circle cx="110.76" cy="126.50" r="14.00"/> 
            <circle cx="92.72" cy="94.04" r="14.00"/> 
            <circle cx="68.58" cy="68.68" r="14.00"/> 
            <circle cx="96.16" cy="46.67" r="14.00"/> 
            <circle cx="123.89" cy="71.11" r="14.00"/> 
            <circle cx="141.43" cy="101.46" r="14.00"/> 
            <circle cx="127.95" cy="31.35" r="14.00"/> 
        </g>
        <g style="fill:#FF0000; stroke-width:0.00; stroke:#000000" 
           id="1_Republicans"> 
            <title>Republicans</title>            <circle cx="160.65" cy="59.04" r="14.00"/> 
            <circle cx="162.36" cy="23.49" r="14.00"/> 
            <circle cx="180.00" cy="92.50" r="14.00"/> 
            <circle cx="197.64" cy="23.49" r="14.00"/> 
            <circle cx="199.35" cy="59.04" r="14.00"/> 
            <circle cx="232.05" cy="31.35" r="14.00"/> 
            <circle cx="218.57" cy="101.46" r="14.00"/> 
            <circle cx="236.11" cy="71.11" r="14.00"/> 
            <circle cx="263.84" cy="46.67" r="14.00"/> 
            <circle cx="291.42" cy="68.68" r="14.00"/> 
            <circle cx="267.28" cy="94.04" r="14.00"/> 
            <circle cx="249.24" cy="126.50" r="14.00"/> 
            <circle cx="313.41" cy="96.28" r="14.00"/> 
            <circle cx="289.74" cy="125.56" r="14.00"/> 
            <circle cx="328.70" cy="128.09" r="14.00"/> 
            <circle cx="265.73" cy="162.50" r="14.00"/> 
            <circle cx="301.24" cy="162.50" r="14.00"/> 
            <circle cx="336.52" cy="162.50" r="14.00"/> 
        </g>
        <g style="fill:#C9C9C9; stroke-width:0.00; stroke:#000000" 
           id="2_Independents"> 
            <title>Independents</title>        </g>
        <g style="fill:#6B6B6B; stroke-width:0.00; stroke:#000000" 
           id="3_Vacant"> 
            <title>Vacant</title>        </g>
    </g>
</svg>
