<?xml version="1.0" encoding="UTF-8" standalone="no"?>
<svg xmlns:svg="http://www.w3.org/2000/svg"
xmlns="http://www.w3.org/2000/svg" version="1.1"
width="360.0" height="176.7">
<!-- Created with the Wikimedia westminster parliament diagram creator (http://parliamentarch.toolforge.org/westminsterinputform.php) -->
<g id="diagram">
  <g id="headbench">
  <g style="fill:#D82A20" id="Labour">
    <rect x="5.8333" y="80.8333" rx="0.00" ry="0.00" width="15.00" height="15.00"/>
  </g>
  </g>
  <g id="leftbench">
  <g style="fill:#00529F" id="National">
    <rect x="22.5000" y="55.8333" rx="0.00" ry="0.00" width="15.00" height="15.00"/>
    <rect x="22.5000" y="39.1667" rx="0.00" ry="0.00" width="15.00" height="15.00"/>
    <rect x="22.5000" y="22.5000" rx="0.00" ry="0.00" width="15.00" height="15.00"/>
    <rect x="22.5000" y="5.8333" rx="0.00" ry="0.00" width="15.00" height="15.00"/>
    <rect x="39.1667" y="55.8333" rx="0.00" ry="0.00" width="15.00" height="15.00"/>
    <rect x="39.1667" y="39.1667" rx="0.00" ry="0.00" width="15.00" height="15.00"/>
    <rect x="39.1667" y="22.5000" rx="0.00" ry="0.00" width="15.00" height="15.00"/>
    <rect x="39.1667" y="5.8333" rx="0.00" ry="0.00" width="15.00" height="15.00"/>
    <rect x="55.8333" y="55.8333" rx="0.00" ry="0.00" width="15.00" height="15.00"/>
    <rect x="55.8333" y="39.1667" rx="0.00" ry="0.00" width="15.00" height="15.00"/>
    <rect x="55.8333" y="22.5000" rx="0.00" ry="0.00" width="15.00" height="15.00"/>
    <rect x="55.8333" y="5.8333" rx="0.00" ry="0.00" width="15.00" height="15.00"/>
    <rect x="72.5000" y="55.8333" rx="0.00" ry="0.00" width="15.00" height="15.00"/>
    <rect x="72.5000" y="39.1667" rx="0.00" ry="0.00" width="15.00" height="15.00"/>
    <rect x="72.5000" y="22.5000" rx="0.00" ry="0.00" width="15.00" height="15.00"/>
    <rect x="72.5000" y="5.8333" rx="0.00" ry="0.00" width="15.00" height="15.00"/>
    <rect x="89.1667" y="55.8333" rx="0.00" ry="0.00" width="15.00" height="15.00"/>
    <rect x="89.1667" y="39.1667" rx="0.00" ry="0.00" width="15.00" height="15.00"/>
    <rect x="89.1667" y="22.5000" rx="0.00" ry="0.00" width="15.00" height="15.00"/>
    <rect x="89.1667" y="5.8333" rx="0.00" ry="0.00" width="15.00" height="15.00"/>
    <rect x="105.8333" y="55.8333" rx="0.00" ry="0.00" width="15.00" height="15.00"/>
    <rect x="105.8333" y="39.1667" rx="0.00" ry="0.00" width="15.00" height="15.00"/>
    <rect x="105.8333" y="22.5000" rx="0.00" ry="0.00" width="15.00" height="15.00"/>
    <rect x="105.8333" y="5.8333" rx="0.00" ry="0.00" width="15.00" height="15.00"/>
    <rect x="122.5000" y="55.8333" rx="0.00" ry="0.00" width="15.00" height="15.00"/>
    <rect x="122.5000" y="39.1667" rx="0.00" ry="0.00" width="15.00" height="15.00"/>
    <rect x="122.5000" y="22.5000" rx="0.00" ry="0.00" width="15.00" height="15.00"/>
    <rect x="122.5000" y="5.8333" rx="0.00" ry="0.00" width="15.00" height="15.00"/>
    <rect x="139.1667" y="55.8333" rx="0.00" ry="0.00" width="15.00" height="15.00"/>
    <rect x="139.1667" y="39.1667" rx="0.00" ry="0.00" width="15.00" height="15.00"/>
    <rect x="139.1667" y="22.5000" rx="0.00" ry="0.00" width="15.00" height="15.00"/>
    <rect x="139.1667" y="5.8333" rx="0.00" ry="0.00" width="15.00" height="15.00"/>
    <rect x="155.8333" y="55.8333" rx="0.00" ry="0.00" width="15.00" height="15.00"/>
  </g>
  </g>
  <g id="rightbench">
  <g style="fill:#D82A20" id="Labour">
    <rect x="22.5000" y="105.8333" rx="0.00" ry="0.00" width="15.00" height="15.00"/>
    <rect x="22.5000" y="122.5000" rx="0.00" ry="0.00" width="15.00" height="15.00"/>
    <rect x="22.5000" y="139.1667" rx="0.00" ry="0.00" width="15.00" height="15.00"/>
    <rect x="22.5000" y="155.8333" rx="0.00" ry="0.00" width="15.00" height="15.00"/>
    <rect x="39.1667" y="105.8333" rx="0.00" ry="0.00" width="15.00" height="15.00"/>
    <rect x="39.1667" y="122.5000" rx="0.00" ry="0.00" width="15.00" height="15.00"/>
    <rect x="39.1667" y="139.1667" rx="0.00" ry="0.00" width="15.00" height="15.00"/>
    <rect x="39.1667" y="155.8333" rx="0.00" ry="0.00" width="15.00" height="15.00"/>
    <rect x="55.8333" y="105.8333" rx="0.00" ry="0.00" width="15.00" height="15.00"/>
    <rect x="55.8333" y="122.5000" rx="0.00" ry="0.00" width="15.00" height="15.00"/>
    <rect x="55.8333" y="139.1667" rx="0.00" ry="0.00" width="15.00" height="15.00"/>
    <rect x="55.8333" y="155.8333" rx="0.00" ry="0.00" width="15.00" height="15.00"/>
    <rect x="72.5000" y="105.8333" rx="0.00" ry="0.00" width="15.00" height="15.00"/>
    <rect x="72.5000" y="122.5000" rx="0.00" ry="0.00" width="15.00" height="15.00"/>
    <rect x="72.5000" y="139.1667" rx="0.00" ry="0.00" width="15.00" height="15.00"/>
    <rect x="72.5000" y="155.8333" rx="0.00" ry="0.00" width="15.00" height="15.00"/>
    <rect x="89.1667" y="105.8333" rx="0.00" ry="0.00" width="15.00" height="15.00"/>
    <rect x="89.1667" y="122.5000" rx="0.00" ry="0.00" width="15.00" height="15.00"/>
    <rect x="89.1667" y="139.1667" rx="0.00" ry="0.00" width="15.00" height="15.00"/>
    <rect x="89.1667" y="155.8333" rx="0.00" ry="0.00" width="15.00" height="15.00"/>
    <rect x="105.8333" y="105.8333" rx="0.00" ry="0.00" width="15.00" height="15.00"/>
    <rect x="105.8333" y="122.5000" rx="0.00" ry="0.00" width="15.00" height="15.00"/>
    <rect x="105.8333" y="139.1667" rx="0.00" ry="0.00" width="15.00" height="15.00"/>
    <rect x="105.8333" y="155.8333" rx="0.00" ry="0.00" width="15.00" height="15.00"/>
    <rect x="122.5000" y="105.8333" rx="0.00" ry="0.00" width="15.00" height="15.00"/>
    <rect x="122.5000" y="122.5000" rx="0.00" ry="0.00" width="15.00" height="15.00"/>
    <rect x="122.5000" y="139.1667" rx="0.00" ry="0.00" width="15.00" height="15.00"/>
    <rect x="122.5000" y="155.8333" rx="0.00" ry="0.00" width="15.00" height="15.00"/>
    <rect x="139.1667" y="105.8333" rx="0.00" ry="0.00" width="15.00" height="15.00"/>
    <rect x="139.1667" y="122.5000" rx="0.00" ry="0.00" width="15.00" height="15.00"/>
    <rect x="139.1667" y="139.1667" rx="0.00" ry="0.00" width="15.00" height="15.00"/>
    <rect x="139.1667" y="155.8333" rx="0.00" ry="0.00" width="15.00" height="15.00"/>
    <rect x="155.8333" y="105.8333" rx="0.00" ry="0.00" width="15.00" height="15.00"/>
    <rect x="155.8333" y="122.5000" rx="0.00" ry="0.00" width="15.00" height="15.00"/>
    <rect x="155.8333" y="139.1667" rx="0.00" ry="0.00" width="15.00" height="15.00"/>
    <rect x="155.8333" y="155.8333" rx="0.00" ry="0.00" width="15.00" height="15.00"/>
    <rect x="172.5000" y="105.8333" rx="0.00" ry="0.00" width="15.00" height="15.00"/>
    <rect x="172.5000" y="122.5000" rx="0.00" ry="0.00" width="15.00" height="15.00"/>
    <rect x="172.5000" y="139.1667" rx="0.00" ry="0.00" width="15.00" height="15.00"/>
    <rect x="172.5000" y="155.8333" rx="0.00" ry="0.00" width="15.00" height="15.00"/>
    <rect x="189.1667" y="105.8333" rx="0.00" ry="0.00" width="15.00" height="15.00"/>
    <rect x="189.1667" y="122.5000" rx="0.00" ry="0.00" width="15.00" height="15.00"/>
    <rect x="189.1667" y="139.1667" rx="0.00" ry="0.00" width="15.00" height="15.00"/>
    <rect x="189.1667" y="155.8333" rx="0.00" ry="0.00" width="15.00" height="15.00"/>
    <rect x="205.8333" y="105.8333" rx="0.00" ry="0.00" width="15.00" height="15.00"/>
    <rect x="205.8333" y="122.5000" rx="0.00" ry="0.00" width="15.00" height="15.00"/>
    <rect x="205.8333" y="139.1667" rx="0.00" ry="0.00" width="15.00" height="15.00"/>
    <rect x="205.8333" y="155.8333" rx="0.00" ry="0.00" width="15.00" height="15.00"/>
    <rect x="222.5000" y="105.8333" rx="0.00" ry="0.00" width="15.00" height="15.00"/>
    <rect x="222.5000" y="122.5000" rx="0.00" ry="0.00" width="15.00" height="15.00"/>
    <rect x="222.5000" y="139.1667" rx="0.00" ry="0.00" width="15.00" height="15.00"/>
    <rect x="222.5000" y="155.8333" rx="0.00" ry="0.00" width="15.00" height="15.00"/>
    <rect x="239.1667" y="105.8333" rx="0.00" ry="0.00" width="15.00" height="15.00"/>
    <rect x="239.1667" y="122.5000" rx="0.00" ry="0.00" width="15.00" height="15.00"/>
    <rect x="239.1667" y="139.1667" rx="0.00" ry="0.00" width="15.00" height="15.00"/>
    <rect x="239.1667" y="155.8333" rx="0.00" ry="0.00" width="15.00" height="15.00"/>
    <rect x="255.8333" y="105.8333" rx="0.00" ry="0.00" width="15.00" height="15.00"/>
    <rect x="255.8333" y="122.5000" rx="0.00" ry="0.00" width="15.00" height="15.00"/>
    <rect x="255.8333" y="139.1667" rx="0.00" ry="0.00" width="15.00" height="15.00"/>
    <rect x="255.8333" y="155.8333" rx="0.00" ry="0.00" width="15.00" height="15.00"/>
    <rect x="272.5000" y="105.8333" rx="0.00" ry="0.00" width="15.00" height="15.00"/>
    <rect x="272.5000" y="122.5000" rx="0.00" ry="0.00" width="15.00" height="15.00"/>
    <rect x="272.5000" y="139.1667" rx="0.00" ry="0.00" width="15.00" height="15.00"/>
    <rect x="272.5000" y="155.8333" rx="0.00" ry="0.00" width="15.00" height="15.00"/>
  </g>
  <g style="fill:#098137" id="Party 2">
    <rect x="289.1667" y="105.8333" rx="0.00" ry="0.00" width="15.00" height="15.00"/>
    <rect x="289.1667" y="122.5000" rx="0.00" ry="0.00" width="15.00" height="15.00"/>
  </g>
  </g>
  <g id="centerbench">
  <g style="fill:#FDE401" id="ACT">
    <rect x="322.5000" y="39.1667" rx="0.00" ry="0.00" width="15.00" height="15.00"/>
    <rect x="339.1667" y="39.1667" rx="0.00" ry="0.00" width="15.00" height="15.00"/>
    <rect x="322.5000" y="55.8333" rx="0.00" ry="0.00" width="15.00" height="15.00"/>
    <rect x="339.1667" y="55.8333" rx="0.00" ry="0.00" width="15.00" height="15.00"/>
    <rect x="322.5000" y="72.5000" rx="0.00" ry="0.00" width="15.00" height="15.00"/>
    <rect x="339.1667" y="72.5000" rx="0.00" ry="0.00" width="15.00" height="15.00"/>
    <rect x="322.5000" y="89.1667" rx="0.00" ry="0.00" width="15.00" height="15.00"/>
    <rect x="339.1667" y="89.1667" rx="0.00" ry="0.00" width="15.00" height="15.00"/>
    <rect x="322.5000" y="105.8333" rx="0.00" ry="0.00" width="15.00" height="15.00"/>
    <rect x="339.1667" y="105.8333" rx="0.00" ry="0.00" width="15.00" height="15.00"/>
  </g>
  <g style="fill:#B2001A" id="MÄori">
    <rect x="322.5000" y="122.5000" rx="0.00" ry="0.00" width="15.00" height="15.00"/>
    <rect x="339.1667" y="122.5000" rx="0.00" ry="0.00" width="15.00" height="15.00"/>
  </g>
  </g>
</g>
</svg>
