<?xml version="1.0" encoding="UTF-8" standalone="no"?>
<svg xmlns:svg="http://www.w3.org/2000/svg"
     xmlns="http://www.w3.org/2000/svg" version="1.1"
     width="360" height="185">
    <!-- Created with the Wikimedia parliament diagram creator (http://parliamentarch.toolforge.org/parliamentinputform.html) -->
    <g>
        <text x="180" y="180" 
              style="font-size:36px;font-weight:bold;text-align:center;text-anchor:middle;font-family:sans-serif">
            577
        </text>
        <g style="fill:#d00; stroke-width:0.00; stroke:#000000" 
           id="0_Gauche-d-mocrate-et-r-publicaine---Nupes"> 
            <title>b'Gauche d\xc3\xa9mocrate et r\xc3\xa9publicaine - Nupes'</title>            <circle cx="8.85" cy="176.20" r="3.04"/> 
            <circle cx="16.46" cy="176.20" r="3.04"/> 
            <circle cx="24.07" cy="176.20" r="3.04"/> 
            <circle cx="31.68" cy="176.20" r="3.04"/> 
            <circle cx="39.29" cy="176.20" r="3.04"/> 
            <circle cx="46.90" cy="176.20" r="3.04"/> 
            <circle cx="54.51" cy="176.20" r="3.04"/> 
            <circle cx="62.13" cy="176.20" r="3.04"/> 
            <circle cx="69.74" cy="176.20" r="3.04"/> 
            <circle cx="77.35" cy="176.20" r="3.04"/> 
            <circle cx="84.97" cy="176.20" r="3.04"/> 
            <circle cx="92.58" cy="176.20" r="3.04"/> 
            <circle cx="9.23" cy="167.92" r="3.04"/> 
            <circle cx="16.87" cy="167.77" r="3.04"/> 
            <circle cx="24.50" cy="167.74" r="3.04"/> 
            <circle cx="32.14" cy="167.72" r="3.04"/> 
            <circle cx="39.78" cy="167.69" r="3.04"/> 
            <circle cx="47.42" cy="167.66" r="3.04"/> 
            <circle cx="55.05" cy="167.81" r="3.04"/> 
            <circle cx="62.70" cy="167.78" r="3.04"/> 
            <circle cx="70.36" cy="167.75" r="3.04"/> 
            <circle cx="10.02" cy="159.67" r="3.04"/> 
        </g>
        <g style="fill:#cc2443; stroke-width:0.00; stroke:#000000" 
           id="1_La-France-insoumise-Nouvelle-Union-Populaire-cologique-et-sociale"> 
            <title>b'La France insoumise \xe2\x80\x93 Nouvelle Union Populaire \xc3\xa9cologique et sociale'</title>            <circle cx="78.02" cy="167.71" r="3.04"/> 
            <circle cx="17.72" cy="159.37" r="3.04"/> 
            <circle cx="85.69" cy="167.67" r="3.04"/> 
            <circle cx="25.40" cy="159.33" r="3.04"/> 
            <circle cx="33.08" cy="159.28" r="3.04"/> 
            <circle cx="93.38" cy="167.61" r="3.04"/> 
            <circle cx="40.78" cy="159.23" r="3.04"/> 
            <circle cx="48.49" cy="159.17" r="3.04"/> 
            <circle cx="56.15" cy="159.47" r="3.04"/> 
            <circle cx="11.20" cy="151.48" r="3.04"/> 
            <circle cx="63.87" cy="159.42" r="3.04"/> 
            <circle cx="19.00" cy="151.03" r="3.04"/> 
            <circle cx="26.75" cy="150.98" r="3.04"/> 
            <circle cx="71.62" cy="159.37" r="3.04"/> 
            <circle cx="34.51" cy="150.91" r="3.04"/> 
            <circle cx="79.39" cy="159.31" r="3.04"/> 
            <circle cx="42.29" cy="150.84" r="3.04"/> 
            <circle cx="12.78" cy="143.34" r="3.04"/> 
            <circle cx="87.19" cy="159.23" r="3.04"/> 
            <circle cx="50.10" cy="150.77" r="3.04"/> 
            <circle cx="20.71" cy="142.77" r="3.04"/> 
            <circle cx="57.80" cy="151.23" r="3.04"/> 
            <circle cx="95.02" cy="159.15" r="3.04"/> 
            <circle cx="28.55" cy="142.71" r="3.04"/> 
            <circle cx="65.64" cy="151.17" r="3.04"/> 
            <circle cx="36.41" cy="142.64" r="3.04"/> 
            <circle cx="14.74" cy="135.30" r="3.04"/> 
            <circle cx="73.52" cy="151.11" r="3.04"/> 
            <circle cx="44.31" cy="142.56" r="3.04"/> 
            <circle cx="22.84" cy="134.61" r="3.04"/> 
            <circle cx="52.24" cy="142.49" r="3.04"/> 
            <circle cx="81.45" cy="151.05" r="3.04"/> 
            <circle cx="30.79" cy="134.55" r="3.04"/> 
            <circle cx="60.00" cy="143.11" r="3.04"/> 
            <circle cx="89.43" cy="150.97" r="3.04"/> 
            <circle cx="38.78" cy="134.49" r="3.04"/> 
            <circle cx="17.10" cy="127.35" r="3.04"/> 
            <circle cx="68.00" cy="143.07" r="3.04"/> 
            <circle cx="46.82" cy="134.42" r="3.04"/> 
            <circle cx="25.39" cy="126.56" r="3.04"/> 
            <circle cx="97.48" cy="150.89" r="3.04"/> 
            <circle cx="76.05" cy="143.03" r="3.04"/> 
            <circle cx="54.91" cy="134.36" r="3.04"/> 
            <circle cx="33.48" cy="126.52" r="3.04"/> 
            <circle cx="19.84" cy="119.54" r="3.04"/> 
            <circle cx="62.74" cy="135.16" r="3.04"/> 
            <circle cx="84.18" cy="142.98" r="3.04"/> 
            <circle cx="41.62" cy="126.48" r="3.04"/> 
            <circle cx="28.35" cy="118.66" r="3.04"/> 
            <circle cx="70.92" cy="135.16" r="3.04"/> 
            <circle cx="49.82" cy="126.45" r="3.04"/> 
            <circle cx="92.41" cy="142.95" r="3.04"/> 
            <circle cx="36.59" cy="118.65" r="3.04"/> 
            <circle cx="22.95" cy="111.86" r="3.04"/> 
            <circle cx="58.10" cy="126.42" r="3.04"/> 
            <circle cx="79.20" cy="135.16" r="3.04"/> 
            <circle cx="44.91" cy="118.66" r="3.04"/> 
            <circle cx="66.00" cy="127.42" r="3.04"/> 
            <circle cx="31.71" cy="110.92" r="3.04"/> 
            <circle cx="100.75" cy="142.92" r="3.04"/> 
            <circle cx="53.30" cy="118.67" r="3.04"/> 
            <circle cx="87.58" cy="135.18" r="3.04"/> 
            <circle cx="26.43" cy="104.34" r="3.04"/> 
            <circle cx="40.13" cy="110.97" r="3.04"/> 
            <circle cx="74.41" cy="127.47" r="3.04"/> 
            <circle cx="61.80" cy="118.70" r="3.04"/> 
            <circle cx="48.64" cy="111.03" r="3.04"/> 
            <circle cx="35.47" cy="103.37" r="3.04"/> 
            <circle cx="96.09" cy="135.22" r="3.04"/> 
            <circle cx="82.94" cy="127.55" r="3.04"/> 
            <circle cx="69.77" cy="119.90" r="3.04"/> 
            <circle cx="30.27" cy="97.00" r="3.04"/> 
            <circle cx="57.24" cy="111.12" r="3.04"/> 
            <circle cx="44.08" cy="103.48" r="3.04"/> 
            <circle cx="78.44" cy="120.06" r="3.04"/> 
        </g>
        <g style="fill:#f88; stroke-width:0.00; stroke:#000000" 
           id="2_Socialistes-et-apparent-s-membre-de-l-intergroupe-Nupes-"> 
            <title>b'Socialistes et apparent\xc3\xa9s (membre de l\xe2\x80\x99intergroupe Nupes)'</title>            <circle cx="91.61" cy="127.68" r="3.04"/> 
            <circle cx="104.78" cy="135.30" r="3.04"/> 
            <circle cx="39.61" cy="96.02" r="3.04"/> 
            <circle cx="52.80" cy="103.63" r="3.04"/> 
            <circle cx="65.98" cy="111.24" r="3.04"/> 
            <circle cx="34.46" cy="89.86" r="3.04"/> 
            <circle cx="74.04" cy="112.66" r="3.04"/> 
            <circle cx="48.43" cy="96.22" r="3.04"/> 
            <circle cx="61.64" cy="103.82" r="3.04"/> 
            <circle cx="87.25" cy="120.26" r="3.04"/> 
            <circle cx="100.46" cy="127.86" r="3.04"/> 
            <circle cx="44.13" cy="88.89" r="3.04"/> 
            <circle cx="57.37" cy="96.48" r="3.04"/> 
            <circle cx="38.99" cy="82.92" r="3.04"/> 
            <circle cx="82.98" cy="112.95" r="3.04"/> 
            <circle cx="70.63" cy="104.06" r="3.04"/> 
            <circle cx="96.24" cy="120.54" r="3.04"/> 
            <circle cx="53.17" cy="89.21" r="3.04"/> 
            <circle cx="66.46" cy="96.80" r="3.04"/> 
            <circle cx="78.79" cy="105.72" r="3.04"/> 
            <circle cx="109.54" cy="128.12" r="3.04"/> 
            <circle cx="49.01" cy="82.01" r="3.04"/> 
            <circle cx="92.11" cy="113.32" r="3.04"/> 
            <circle cx="43.85" cy="76.21" r="3.04"/> 
            <circle cx="62.35" cy="89.60" r="3.04"/> 
            <circle cx="105.47" cy="120.91" r="3.04"/> 
            <circle cx="75.73" cy="97.19" r="3.04"/> 
            <circle cx="58.28" cy="82.47" r="3.04"/> 
            <circle cx="88.02" cy="106.18" r="3.04"/> 
            <circle cx="71.71" cy="90.08" r="3.04"/> 
            <circle cx="54.24" cy="75.38" r="3.04"/> 
        </g>
        <g style="fill:#00c000; stroke-width:0.00; stroke:#000000" 
           id="3_-cologiste-Nupes"> 
            <title>b'\xc3\x89cologiste \xe2\x80\x93 Nupes'</title>            <circle cx="49.03" cy="69.75" r="3.04"/> 
            <circle cx="83.99" cy="99.11" r="3.04"/> 
            <circle cx="101.46" cy="113.80" r="3.04"/> 
            <circle cx="67.71" cy="83.02" r="3.04"/> 
            <circle cx="97.48" cy="106.77" r="3.04"/> 
            <circle cx="63.75" cy="76.01" r="3.04"/> 
            <circle cx="114.99" cy="121.44" r="3.04"/> 
            <circle cx="81.26" cy="90.67" r="3.04"/> 
            <circle cx="59.80" cy="69.04" r="3.04"/> 
            <circle cx="93.54" cy="99.80" r="3.04"/> 
            <circle cx="54.52" cy="63.54" r="3.04"/> 
            <circle cx="77.34" cy="83.69" r="3.04"/> 
            <circle cx="111.09" cy="114.45" r="3.04"/> 
            <circle cx="89.61" cy="92.87" r="3.04"/> 
            <circle cx="73.44" cy="76.76" r="3.04"/> 
            <circle cx="107.21" cy="107.53" r="3.04"/> 
            <circle cx="69.56" cy="69.86" r="3.04"/> 
            <circle cx="60.30" cy="57.61" r="3.04"/> 
            <circle cx="65.68" cy="62.99" r="3.04"/> 
            <circle cx="87.20" cy="84.51" r="3.04"/> 
            <circle cx="103.34" cy="100.65" r="3.04"/> 
            <circle cx="83.36" cy="77.66" r="3.04"/> 
            <circle cx="99.49" cy="93.82" r="3.04"/> 
        </g>
        <g style="fill:#e1a5e1; stroke-width:0.00; stroke:#000000" 
           id="4_Libert-s-Ind-pendants-Outre-mer-et-Territoires"> 
            <title>b'Libert\xc3\xa9s, Ind\xc3\xa9pendants, Outre-mer et Territoires'</title>            <circle cx="79.52" cy="70.83" r="3.04"/> 
            <circle cx="121.06" cy="115.33" r="3.04"/> 
            <circle cx="95.65" cy="87.02" r="3.04"/> 
            <circle cx="75.69" cy="64.03" r="3.04"/> 
            <circle cx="66.36" cy="51.96" r="3.04"/> 
            <circle cx="71.86" cy="57.25" r="3.04"/> 
            <circle cx="117.26" cy="108.52" r="3.04"/> 
            <circle cx="93.53" cy="78.75" r="3.04"/> 
            <circle cx="113.46" cy="101.75" r="3.04"/> 
            <circle cx="89.73" cy="72.00" r="3.04"/> 
            <circle cx="109.66" cy="95.01" r="3.04"/> 
            <circle cx="85.93" cy="65.26" r="3.04"/> 
            <circle cx="105.86" cy="88.28" r="3.04"/> 
            <circle cx="82.13" cy="58.54" r="3.04"/> 
            <circle cx="72.69" cy="46.61" r="3.04"/> 
            <circle cx="78.34" cy="51.84" r="3.04"/> 
        </g>
        <g style="fill:#ffeb00; stroke-width:0.00; stroke:#000000" 
           id="5_Renaissance"> 
            <title>b'Renaissance'</title>            <circle cx="102.06" cy="81.58" r="3.04"/> 
            <circle cx="100.21" cy="73.41" r="3.04"/> 
            <circle cx="127.71" cy="109.84" r="3.04"/> 
            <circle cx="96.43" cy="66.73" r="3.04"/> 
            <circle cx="123.94" cy="103.17" r="3.04"/> 
            <circle cx="92.65" cy="60.07" r="3.04"/> 
            <circle cx="79.26" cy="41.58" r="3.04"/> 
            <circle cx="88.87" cy="53.42" r="3.04"/> 
            <circle cx="120.17" cy="96.51" r="3.04"/> 
            <circle cx="85.08" cy="46.77" r="3.04"/> 
            <circle cx="116.39" cy="89.86" r="3.04"/> 
            <circle cx="112.61" cy="83.22" r="3.04"/> 
            <circle cx="108.82" cy="76.58" r="3.04"/> 
            <circle cx="86.08" cy="36.87" r="3.04"/> 
            <circle cx="107.22" cy="68.50" r="3.04"/> 
            <circle cx="103.43" cy="61.88" r="3.04"/> 
            <circle cx="99.65" cy="55.27" r="3.04"/> 
            <circle cx="95.86" cy="48.66" r="3.04"/> 
            <circle cx="92.08" cy="42.05" r="3.04"/> 
            <circle cx="134.87" cy="105.04" r="3.04"/> 
            <circle cx="131.08" cy="98.44" r="3.04"/> 
            <circle cx="127.29" cy="91.84" r="3.04"/> 
            <circle cx="123.49" cy="85.24" r="3.04"/> 
            <circle cx="119.70" cy="78.65" r="3.04"/> 
            <circle cx="115.90" cy="72.05" r="3.04"/> 
            <circle cx="93.11" cy="32.49" r="3.04"/> 
            <circle cx="99.31" cy="37.70" r="3.04"/> 
            <circle cx="103.11" cy="44.29" r="3.04"/> 
            <circle cx="106.92" cy="50.88" r="3.04"/> 
            <circle cx="110.72" cy="57.47" r="3.04"/> 
            <circle cx="114.53" cy="64.06" r="3.04"/> 
            <circle cx="100.35" cy="28.46" r="3.04"/> 
            <circle cx="123.27" cy="68.00" r="3.04"/> 
            <circle cx="127.10" cy="74.59" r="3.04"/> 
            <circle cx="106.75" cy="33.73" r="3.04"/> 
            <circle cx="110.58" cy="40.32" r="3.04"/> 
            <circle cx="130.93" cy="81.19" r="3.04"/> 
            <circle cx="114.42" cy="46.91" r="3.04"/> 
            <circle cx="134.77" cy="87.78" r="3.04"/> 
            <circle cx="118.26" cy="53.50" r="3.04"/> 
            <circle cx="138.61" cy="94.37" r="3.04"/> 
            <circle cx="122.11" cy="60.09" r="3.04"/> 
            <circle cx="142.46" cy="100.96" r="3.04"/> 
            <circle cx="107.77" cy="24.79" r="3.04"/> 
            <circle cx="114.39" cy="30.15" r="3.04"/> 
            <circle cx="118.26" cy="36.76" r="3.04"/> 
            <circle cx="130.90" cy="64.46" r="3.04"/> 
            <circle cx="122.14" cy="43.38" r="3.04"/> 
            <circle cx="134.77" cy="71.08" r="3.04"/> 
            <circle cx="126.03" cy="50.00" r="3.04"/> 
            <circle cx="115.37" cy="21.47" r="3.04"/> 
            <circle cx="129.92" cy="56.62" r="3.04"/> 
            <circle cx="138.66" cy="77.71" r="3.04"/> 
            <circle cx="142.56" cy="84.35" r="3.04"/> 
            <circle cx="122.21" cy="26.96" r="3.04"/> 
            <circle cx="146.48" cy="90.99" r="3.04"/> 
            <circle cx="126.12" cy="33.62" r="3.04"/> 
            <circle cx="150.42" cy="97.65" r="3.04"/> 
            <circle cx="130.05" cy="40.29" r="3.04"/> 
            <circle cx="123.11" cy="18.53" r="3.04"/> 
            <circle cx="138.74" cy="61.43" r="3.04"/> 
            <circle cx="133.99" cy="46.97" r="3.04"/> 
            <circle cx="142.68" cy="68.13" r="3.04"/> 
            <circle cx="137.95" cy="53.66" r="3.04"/> 
            <circle cx="130.17" cy="24.19" r="3.04"/> 
            <circle cx="146.63" cy="74.84" r="3.04"/> 
            <circle cx="134.14" cy="30.92" r="3.04"/> 
            <circle cx="130.99" cy="15.97" r="3.04"/> 
            <circle cx="150.61" cy="81.58" r="3.04"/> 
            <circle cx="138.12" cy="37.66" r="3.04"/> 
            <circle cx="142.13" cy="44.43" r="3.04"/> 
            <circle cx="154.62" cy="88.34" r="3.04"/> 
            <circle cx="146.77" cy="58.94" r="3.04"/> 
            <circle cx="138.27" cy="21.82" r="3.04"/> 
            <circle cx="146.15" cy="51.22" r="3.04"/> 
            <circle cx="150.77" cy="65.74" r="3.04"/> 
            <circle cx="158.66" cy="95.14" r="3.04"/> 
            <circle cx="142.29" cy="28.65" r="3.04"/> 
            <circle cx="138.98" cy="13.79" r="3.04"/> 
            <circle cx="154.80" cy="72.59" r="3.04"/> 
            <circle cx="146.33" cy="35.50" r="3.04"/> 
            <circle cx="150.40" cy="42.39" r="3.04"/> 
            <circle cx="158.86" cy="79.48" r="3.04"/> 
            <circle cx="146.48" cy="19.88" r="3.04"/> 
            <circle cx="154.94" cy="56.98" r="3.04"/> 
            <circle cx="147.07" cy="12.00" r="3.04"/> 
            <circle cx="154.49" cy="49.31" r="3.04"/> 
            <circle cx="150.56" cy="26.83" r="3.04"/> 
            <circle cx="162.96" cy="86.43" r="3.04"/> 
            <circle cx="159.01" cy="63.95" r="3.04"/> 
            <circle cx="154.65" cy="33.81" r="3.04"/> 
            <circle cx="154.79" cy="18.37" r="3.04"/> 
            <circle cx="163.12" cy="70.97" r="3.04"/> 
            <circle cx="158.78" cy="40.85" r="3.04"/> 
            <circle cx="167.11" cy="93.45" r="3.04"/> 
            <circle cx="155.23" cy="10.61" r="3.04"/> 
            <circle cx="158.91" cy="25.45" r="3.04"/> 
            <circle cx="163.23" cy="55.58" r="3.04"/> 
            <circle cx="162.93" cy="47.95" r="3.04"/> 
            <circle cx="167.26" cy="78.08" r="3.04"/> 
            <circle cx="163.06" cy="32.60" r="3.04"/> 
            <circle cx="167.37" cy="62.74" r="3.04"/> 
            <circle cx="163.15" cy="17.28" r="3.04"/> 
            <circle cx="163.46" cy="9.61" r="3.04"/> 
            <circle cx="167.24" cy="39.82" r="3.04"/> 
            <circle cx="171.45" cy="85.28" r="3.04"/> 
            <circle cx="167.32" cy="24.54" r="3.04"/> 
            <circle cx="171.53" cy="70.00" r="3.04"/> 
            <circle cx="171.60" cy="54.74" r="3.04"/> 
            <circle cx="171.45" cy="47.12" r="3.04"/> 
            <circle cx="171.51" cy="31.87" r="3.04"/> 
            <circle cx="171.57" cy="16.63" r="3.04"/> 
            <circle cx="175.69" cy="92.61" r="3.04"/> 
            <circle cx="171.72" cy="9.00" r="3.04"/> 
            <circle cx="175.74" cy="77.37" r="3.04"/> 
            <circle cx="175.78" cy="62.14" r="3.04"/> 
            <circle cx="175.74" cy="39.30" r="3.04"/> 
            <circle cx="175.77" cy="24.08" r="3.04"/> 
            <circle cx="180.00" cy="8.80" r="3.04"/> 
            <circle cx="180.00" cy="16.41" r="3.04"/> 
            <circle cx="180.00" cy="31.63" r="3.04"/> 
            <circle cx="180.00" cy="46.85" r="3.04"/> 
            <circle cx="180.00" cy="54.46" r="3.04"/> 
            <circle cx="180.00" cy="69.67" r="3.04"/> 
            <circle cx="180.00" cy="84.89" r="3.04"/> 
            <circle cx="184.23" cy="24.08" r="3.04"/> 
            <circle cx="184.26" cy="39.30" r="3.04"/> 
            <circle cx="184.22" cy="62.14" r="3.04"/> 
            <circle cx="184.26" cy="77.37" r="3.04"/> 
            <circle cx="188.28" cy="9.00" r="3.04"/> 
            <circle cx="184.31" cy="92.61" r="3.04"/> 
            <circle cx="188.43" cy="16.63" r="3.04"/> 
            <circle cx="188.49" cy="31.87" r="3.04"/> 
            <circle cx="188.55" cy="47.12" r="3.04"/> 
            <circle cx="188.40" cy="54.74" r="3.04"/> 
            <circle cx="188.47" cy="70.00" r="3.04"/> 
            <circle cx="192.68" cy="24.54" r="3.04"/> 
            <circle cx="188.55" cy="85.28" r="3.04"/> 
            <circle cx="192.76" cy="39.82" r="3.04"/> 
            <circle cx="196.54" cy="9.61" r="3.04"/> 
            <circle cx="196.85" cy="17.28" r="3.04"/> 
            <circle cx="192.63" cy="62.74" r="3.04"/> 
            <circle cx="196.94" cy="32.60" r="3.04"/> 
            <circle cx="192.74" cy="78.08" r="3.04"/> 
            <circle cx="197.07" cy="47.95" r="3.04"/> 
            <circle cx="196.77" cy="55.58" r="3.04"/> 
            <circle cx="201.09" cy="25.45" r="3.04"/> 
            <circle cx="204.77" cy="10.61" r="3.04"/> 
            <circle cx="192.89" cy="93.45" r="3.04"/> 
            <circle cx="201.22" cy="40.85" r="3.04"/> 
            <circle cx="196.88" cy="70.97" r="3.04"/> 
            <circle cx="205.21" cy="18.37" r="3.04"/> 
            <circle cx="205.35" cy="33.81" r="3.04"/> 
            <circle cx="200.99" cy="63.95" r="3.04"/> 
            <circle cx="197.04" cy="86.43" r="3.04"/> 
            <circle cx="209.44" cy="26.83" r="3.04"/> 
            <circle cx="205.51" cy="49.31" r="3.04"/> 
            <circle cx="212.93" cy="12.00" r="3.04"/> 
            <circle cx="205.06" cy="56.98" r="3.04"/> 
            <circle cx="213.52" cy="19.88" r="3.04"/> 
            <circle cx="201.14" cy="79.48" r="3.04"/> 
            <circle cx="209.60" cy="42.39" r="3.04"/> 
            <circle cx="213.67" cy="35.50" r="3.04"/> 
            <circle cx="205.20" cy="72.59" r="3.04"/> 
            <circle cx="221.02" cy="13.79" r="3.04"/> 
            <circle cx="217.71" cy="28.65" r="3.04"/> 
            <circle cx="201.34" cy="95.14" r="3.04"/> 
            <circle cx="209.23" cy="65.74" r="3.04"/> 
            <circle cx="213.85" cy="51.22" r="3.04"/> 
            <circle cx="221.73" cy="21.82" r="3.04"/> 
            <circle cx="213.23" cy="58.94" r="3.04"/> 
            <circle cx="205.38" cy="88.34" r="3.04"/> 
        </g>
        <g style="fill:#f90; stroke-width:0.00; stroke:#000000" 
           id="6_D-mocrate-MoDem-et-Ind-pendants-"> 
            <title>b'D\xc3\xa9mocrate (MoDem et Ind\xc3\xa9pendants)'</title>            <circle cx="217.87" cy="44.43" r="3.04"/> 
            <circle cx="221.88" cy="37.66" r="3.04"/> 
            <circle cx="209.39" cy="81.58" r="3.04"/> 
            <circle cx="229.01" cy="15.97" r="3.04"/> 
            <circle cx="225.86" cy="30.92" r="3.04"/> 
            <circle cx="213.37" cy="74.84" r="3.04"/> 
            <circle cx="229.83" cy="24.19" r="3.04"/> 
            <circle cx="222.05" cy="53.66" r="3.04"/> 
            <circle cx="217.32" cy="68.13" r="3.04"/> 
            <circle cx="226.01" cy="46.97" r="3.04"/> 
            <circle cx="221.26" cy="61.43" r="3.04"/> 
            <circle cx="236.89" cy="18.53" r="3.04"/> 
            <circle cx="229.95" cy="40.29" r="3.04"/> 
            <circle cx="209.58" cy="97.65" r="3.04"/> 
            <circle cx="233.88" cy="33.62" r="3.04"/> 
            <circle cx="213.52" cy="90.99" r="3.04"/> 
            <circle cx="237.79" cy="26.96" r="3.04"/> 
            <circle cx="217.44" cy="84.35" r="3.04"/> 
            <circle cx="221.34" cy="77.71" r="3.04"/> 
            <circle cx="230.08" cy="56.62" r="3.04"/> 
            <circle cx="244.63" cy="21.47" r="3.04"/> 
            <circle cx="233.97" cy="50.00" r="3.04"/> 
            <circle cx="225.23" cy="71.08" r="3.04"/> 
            <circle cx="237.86" cy="43.38" r="3.04"/> 
            <circle cx="229.10" cy="64.46" r="3.04"/> 
            <circle cx="241.74" cy="36.76" r="3.04"/> 
            <circle cx="245.61" cy="30.15" r="3.04"/> 
            <circle cx="252.23" cy="24.79" r="3.04"/> 
            <circle cx="217.54" cy="100.96" r="3.04"/> 
            <circle cx="237.89" cy="60.09" r="3.04"/> 
            <circle cx="221.39" cy="94.37" r="3.04"/> 
            <circle cx="241.74" cy="53.50" r="3.04"/> 
            <circle cx="225.23" cy="87.78" r="3.04"/> 
            <circle cx="245.58" cy="46.91" r="3.04"/> 
            <circle cx="229.07" cy="81.19" r="3.04"/> 
            <circle cx="249.42" cy="40.32" r="3.04"/> 
            <circle cx="253.25" cy="33.73" r="3.04"/> 
            <circle cx="232.90" cy="74.59" r="3.04"/> 
            <circle cx="236.73" cy="68.00" r="3.04"/> 
            <circle cx="259.65" cy="28.46" r="3.04"/> 
            <circle cx="245.47" cy="64.06" r="3.04"/> 
            <circle cx="249.28" cy="57.47" r="3.04"/> 
            <circle cx="253.08" cy="50.88" r="3.04"/> 
            <circle cx="256.89" cy="44.29" r="3.04"/> 
            <circle cx="260.69" cy="37.70" r="3.04"/> 
            <circle cx="266.89" cy="32.49" r="3.04"/> 
            <circle cx="244.10" cy="72.05" r="3.04"/> 
            <circle cx="240.30" cy="78.65" r="3.04"/> 
        </g>
        <g style="fill:#87cefa; stroke-width:0.00; stroke:#000000" 
           id="7_Horizons-et-apparent-s"> 
            <title>b'Horizons et apparent\xc3\xa9s'</title>            <circle cx="236.51" cy="85.24" r="3.04"/> 
            <circle cx="232.71" cy="91.84" r="3.04"/> 
            <circle cx="228.92" cy="98.44" r="3.04"/> 
            <circle cx="225.13" cy="105.04" r="3.04"/> 
            <circle cx="267.92" cy="42.05" r="3.04"/> 
            <circle cx="264.14" cy="48.66" r="3.04"/> 
            <circle cx="260.35" cy="55.27" r="3.04"/> 
            <circle cx="256.57" cy="61.88" r="3.04"/> 
            <circle cx="252.78" cy="68.50" r="3.04"/> 
            <circle cx="273.92" cy="36.87" r="3.04"/> 
            <circle cx="251.18" cy="76.58" r="3.04"/> 
            <circle cx="247.39" cy="83.22" r="3.04"/> 
            <circle cx="243.61" cy="89.86" r="3.04"/> 
            <circle cx="274.92" cy="46.77" r="3.04"/> 
            <circle cx="239.83" cy="96.51" r="3.04"/> 
            <circle cx="271.13" cy="53.42" r="3.04"/> 
            <circle cx="280.74" cy="41.58" r="3.04"/> 
            <circle cx="267.35" cy="60.07" r="3.04"/> 
            <circle cx="236.06" cy="103.17" r="3.04"/> 
            <circle cx="263.57" cy="66.73" r="3.04"/> 
            <circle cx="232.29" cy="109.84" r="3.04"/> 
            <circle cx="259.79" cy="73.41" r="3.04"/> 
            <circle cx="257.94" cy="81.58" r="3.04"/> 
            <circle cx="281.66" cy="51.84" r="3.04"/> 
            <circle cx="287.31" cy="46.61" r="3.04"/> 
            <circle cx="277.87" cy="58.54" r="3.04"/> 
            <circle cx="254.14" cy="88.28" r="3.04"/> 
            <circle cx="274.07" cy="65.26" r="3.04"/> 
            <circle cx="250.34" cy="95.01" r="3.04"/> 
            <circle cx="270.27" cy="72.00" r="3.04"/> 
        </g>
        <g style="fill:#06c; stroke-width:0.00; stroke:#000000" 
           id="8_Les-R-publicains"> 
            <title>b'Les R\xc3\xa9publicains'</title>            <circle cx="246.54" cy="101.75" r="3.04"/> 
            <circle cx="266.47" cy="78.75" r="3.04"/> 
            <circle cx="242.74" cy="108.52" r="3.04"/> 
            <circle cx="288.14" cy="57.25" r="3.04"/> 
            <circle cx="293.64" cy="51.96" r="3.04"/> 
            <circle cx="284.31" cy="64.03" r="3.04"/> 
            <circle cx="264.35" cy="87.02" r="3.04"/> 
            <circle cx="238.94" cy="115.33" r="3.04"/> 
            <circle cx="280.48" cy="70.83" r="3.04"/> 
            <circle cx="260.51" cy="93.82" r="3.04"/> 
            <circle cx="276.64" cy="77.66" r="3.04"/> 
            <circle cx="256.66" cy="100.65" r="3.04"/> 
            <circle cx="272.80" cy="84.51" r="3.04"/> 
            <circle cx="294.32" cy="62.99" r="3.04"/> 
            <circle cx="299.70" cy="57.61" r="3.04"/> 
            <circle cx="290.44" cy="69.86" r="3.04"/> 
            <circle cx="252.79" cy="107.53" r="3.04"/> 
            <circle cx="286.56" cy="76.76" r="3.04"/> 
            <circle cx="270.39" cy="92.87" r="3.04"/> 
            <circle cx="248.91" cy="114.45" r="3.04"/> 
            <circle cx="282.66" cy="83.69" r="3.04"/> 
            <circle cx="305.48" cy="63.54" r="3.04"/> 
            <circle cx="266.46" cy="99.80" r="3.04"/> 
            <circle cx="300.20" cy="69.04" r="3.04"/> 
            <circle cx="278.74" cy="90.67" r="3.04"/> 
            <circle cx="245.01" cy="121.44" r="3.04"/> 
            <circle cx="296.25" cy="76.01" r="3.04"/> 
            <circle cx="262.52" cy="106.77" r="3.04"/> 
            <circle cx="292.29" cy="83.02" r="3.04"/> 
            <circle cx="258.54" cy="113.80" r="3.04"/> 
            <circle cx="276.01" cy="99.11" r="3.04"/> 
            <circle cx="310.97" cy="69.75" r="3.04"/> 
            <circle cx="305.76" cy="75.38" r="3.04"/> 
            <circle cx="288.29" cy="90.08" r="3.04"/> 
            <circle cx="271.98" cy="106.18" r="3.04"/> 
            <circle cx="301.72" cy="82.47" r="3.04"/> 
            <circle cx="284.27" cy="97.19" r="3.04"/> 
            <circle cx="254.53" cy="120.91" r="3.04"/> 
            <circle cx="297.65" cy="89.60" r="3.04"/> 
            <circle cx="316.15" cy="76.21" r="3.04"/> 
            <circle cx="267.89" cy="113.32" r="3.04"/> 
            <circle cx="310.99" cy="82.01" r="3.04"/> 
            <circle cx="250.46" cy="128.12" r="3.04"/> 
            <circle cx="281.21" cy="105.72" r="3.04"/> 
            <circle cx="293.54" cy="96.80" r="3.04"/> 
            <circle cx="306.83" cy="89.21" r="3.04"/> 
            <circle cx="263.76" cy="120.54" r="3.04"/> 
            <circle cx="289.37" cy="104.06" r="3.04"/> 
            <circle cx="277.02" cy="112.95" r="3.04"/> 
            <circle cx="321.01" cy="82.92" r="3.04"/> 
            <circle cx="302.63" cy="96.48" r="3.04"/> 
            <circle cx="315.87" cy="88.89" r="3.04"/> 
            <circle cx="259.54" cy="127.86" r="3.04"/> 
            <circle cx="272.75" cy="120.26" r="3.04"/> 
            <circle cx="298.36" cy="103.82" r="3.04"/> 
            <circle cx="311.57" cy="96.22" r="3.04"/> 
            <circle cx="285.96" cy="112.66" r="3.04"/> 
            <circle cx="325.54" cy="89.86" r="3.04"/> 
            <circle cx="294.02" cy="111.24" r="3.04"/> 
            <circle cx="307.20" cy="103.63" r="3.04"/> 
            <circle cx="320.39" cy="96.02" r="3.04"/> 
            <circle cx="255.22" cy="135.30" r="3.04"/> 
        </g>
        <g style="fill:#0d378a; stroke-width:0.00; stroke:#000000" 
           id="9_Rassemblement-National"> 
            <title>b'Rassemblement National'</title>            <circle cx="268.39" cy="127.68" r="3.04"/> 
            <circle cx="281.56" cy="120.06" r="3.04"/> 
            <circle cx="315.92" cy="103.48" r="3.04"/> 
            <circle cx="302.76" cy="111.12" r="3.04"/> 
            <circle cx="329.73" cy="97.00" r="3.04"/> 
            <circle cx="290.23" cy="119.90" r="3.04"/> 
            <circle cx="277.06" cy="127.55" r="3.04"/> 
            <circle cx="263.91" cy="135.22" r="3.04"/> 
            <circle cx="324.53" cy="103.37" r="3.04"/> 
            <circle cx="311.36" cy="111.03" r="3.04"/> 
            <circle cx="298.20" cy="118.70" r="3.04"/> 
            <circle cx="285.59" cy="127.47" r="3.04"/> 
            <circle cx="319.87" cy="110.97" r="3.04"/> 
            <circle cx="333.57" cy="104.34" r="3.04"/> 
            <circle cx="272.42" cy="135.18" r="3.04"/> 
            <circle cx="306.70" cy="118.67" r="3.04"/> 
            <circle cx="259.25" cy="142.92" r="3.04"/> 
            <circle cx="328.29" cy="110.92" r="3.04"/> 
            <circle cx="294.00" cy="127.42" r="3.04"/> 
            <circle cx="315.09" cy="118.66" r="3.04"/> 
            <circle cx="280.80" cy="135.16" r="3.04"/> 
            <circle cx="301.90" cy="126.42" r="3.04"/> 
            <circle cx="337.05" cy="111.86" r="3.04"/> 
            <circle cx="323.41" cy="118.65" r="3.04"/> 
            <circle cx="267.59" cy="142.95" r="3.04"/> 
            <circle cx="310.18" cy="126.45" r="3.04"/> 
            <circle cx="289.08" cy="135.16" r="3.04"/> 
            <circle cx="331.65" cy="118.66" r="3.04"/> 
            <circle cx="318.38" cy="126.48" r="3.04"/> 
            <circle cx="275.82" cy="142.98" r="3.04"/> 
            <circle cx="297.26" cy="135.16" r="3.04"/> 
            <circle cx="340.16" cy="119.54" r="3.04"/> 
            <circle cx="326.52" cy="126.52" r="3.04"/> 
            <circle cx="305.09" cy="134.36" r="3.04"/> 
            <circle cx="283.95" cy="143.03" r="3.04"/> 
            <circle cx="262.52" cy="150.89" r="3.04"/> 
            <circle cx="334.61" cy="126.56" r="3.04"/> 
            <circle cx="313.18" cy="134.42" r="3.04"/> 
            <circle cx="292.00" cy="143.07" r="3.04"/> 
            <circle cx="342.90" cy="127.35" r="3.04"/> 
            <circle cx="321.22" cy="134.49" r="3.04"/> 
            <circle cx="270.57" cy="150.97" r="3.04"/> 
            <circle cx="300.00" cy="143.11" r="3.04"/> 
            <circle cx="329.21" cy="134.55" r="3.04"/> 
            <circle cx="278.55" cy="151.05" r="3.04"/> 
            <circle cx="307.76" cy="142.49" r="3.04"/> 
            <circle cx="337.16" cy="134.61" r="3.04"/> 
            <circle cx="315.69" cy="142.56" r="3.04"/> 
            <circle cx="286.48" cy="151.11" r="3.04"/> 
            <circle cx="345.26" cy="135.30" r="3.04"/> 
            <circle cx="323.59" cy="142.64" r="3.04"/> 
            <circle cx="294.36" cy="151.17" r="3.04"/> 
            <circle cx="331.45" cy="142.71" r="3.04"/> 
            <circle cx="264.98" cy="159.15" r="3.04"/> 
            <circle cx="302.20" cy="151.23" r="3.04"/> 
            <circle cx="339.29" cy="142.77" r="3.04"/> 
            <circle cx="309.90" cy="150.77" r="3.04"/> 
            <circle cx="272.81" cy="159.23" r="3.04"/> 
            <circle cx="347.22" cy="143.34" r="3.04"/> 
            <circle cx="317.71" cy="150.84" r="3.04"/> 
            <circle cx="280.61" cy="159.31" r="3.04"/> 
            <circle cx="325.49" cy="150.91" r="3.04"/> 
            <circle cx="288.38" cy="159.37" r="3.04"/> 
            <circle cx="333.25" cy="150.98" r="3.04"/> 
            <circle cx="341.00" cy="151.03" r="3.04"/> 
            <circle cx="296.13" cy="159.42" r="3.04"/> 
            <circle cx="348.80" cy="151.48" r="3.04"/> 
            <circle cx="303.85" cy="159.47" r="3.04"/> 
            <circle cx="311.51" cy="159.17" r="3.04"/> 
            <circle cx="319.22" cy="159.23" r="3.04"/> 
            <circle cx="266.62" cy="167.61" r="3.04"/> 
            <circle cx="326.92" cy="159.28" r="3.04"/> 
            <circle cx="334.60" cy="159.33" r="3.04"/> 
            <circle cx="274.31" cy="167.67" r="3.04"/> 
            <circle cx="342.28" cy="159.37" r="3.04"/> 
            <circle cx="281.98" cy="167.71" r="3.04"/> 
            <circle cx="349.98" cy="159.67" r="3.04"/> 
            <circle cx="289.64" cy="167.75" r="3.04"/> 
            <circle cx="297.30" cy="167.78" r="3.04"/> 
            <circle cx="304.95" cy="167.81" r="3.04"/> 
            <circle cx="312.58" cy="167.66" r="3.04"/> 
            <circle cx="320.22" cy="167.69" r="3.04"/> 
            <circle cx="327.86" cy="167.72" r="3.04"/> 
            <circle cx="335.50" cy="167.74" r="3.04"/> 
            <circle cx="343.13" cy="167.77" r="3.04"/> 
            <circle cx="350.77" cy="167.92" r="3.04"/> 
            <circle cx="267.42" cy="176.20" r="3.04"/> 
            <circle cx="275.03" cy="176.20" r="3.04"/> 
            <circle cx="282.65" cy="176.20" r="3.04"/> 
        </g>
        <g style="fill:#ddd; stroke-width:0.00; stroke:#000000" 
           id="10_Non-Inscrits"> 
            <title>b'Non-Inscrits'</title>            <circle cx="290.26" cy="176.20" r="3.04"/> 
            <circle cx="297.87" cy="176.20" r="3.04"/> 
            <circle cx="305.49" cy="176.20" r="3.04"/> 
            <circle cx="313.10" cy="176.20" r="3.04"/> 
            <circle cx="320.71" cy="176.20" r="3.04"/> 
            <circle cx="328.32" cy="176.20" r="3.04"/> 
            <circle cx="335.93" cy="176.20" r="3.04"/> 
            <circle cx="343.54" cy="176.20" r="3.04"/> 
            <circle cx="351.15" cy="176.20" r="3.04"/> 
        </g>
    </g>
</svg>
