<?xml version="1.0" encoding="UTF-8" standalone="no"?>
<svg xmlns:svg="http://www.w3.org/2000/svg"
xmlns="http://www.w3.org/2000/svg" version="1.1"
width="360" height="185">
<g>
<text x="175" y="175" style="font-size:36px;font-weight:bold;text-align:center;text-anchor:middle;font-family:Sans">50</text>
  <g style="fill:#AD1FFF" id="RepublicanTurkishParty">
    <circle cx="17.81" cy="170.01" r="10.00"/>
    <circle cx="42.86" cy="170.02" r="10.00"/>
    <circle cx="67.94" cy="170.03" r="10.00"/>
    <circle cx="93.07" cy="170.04" r="10.00"/>
    <circle cx="22.56" cy="139.77" r="10.00"/>
    <circle cx="48.77" cy="138.95" r="10.00"/>
    <circle cx="75.74" cy="137.73" r="10.00"/>
    <circle cx="32.90" cy="110.96" r="10.00"/>
    <circle cx="104.52" cy="135.75" r="10.00"/>
    <circle cx="61.62" cy="110.06" r="10.00"/>
    <circle cx="48.46" cy="84.59" r="10.00"/>
    <circle cx="92.64" cy="109.12" r="10.00"/>
    <circle cx="80.73" cy="84.86" r="10.00"/>
    <circle cx="68.68" cy="61.62" r="10.00"/>
    <circle cx="128.85" cy="109.01" r="10.00"/>
    <circle cx="117.15" cy="86.70" r="10.00"/>
    <circle cx="105.08" cy="64.70" r="10.00"/>
    <circle cx="92.86" cy="42.84" r="10.00"/>
    <circle cx="120.13" cy="28.93" r="10.00"/>
    <circle cx="133.40" cy="50.64" r="10.00"/>
    <circle cx="147.14" cy="72.41" r="10.00"/>
  </g>
  <g style="fill:#5183AA" id="NationalUnityParty">
    <circle cx="161.92" cy="94.39" r="10.00"/>
    <circle cx="149.52" cy="20.38" r="10.00"/>
    <circle cx="164.19" cy="43.41" r="10.00"/>
    <circle cx="180.00" cy="17.50" r="10.00"/>
    <circle cx="180.00" cy="67.50" r="10.00"/>
    <circle cx="195.81" cy="43.41" r="10.00"/>
    <circle cx="210.48" cy="20.38" r="10.00"/>
    <circle cx="198.08" cy="94.39" r="10.00"/>
    <circle cx="212.86" cy="72.41" r="10.00"/>
    <circle cx="226.60" cy="50.64" r="10.00"/>
    <circle cx="239.87" cy="28.93" r="10.00"/>
    <circle cx="267.14" cy="42.84" r="10.00"/>
    <circle cx="254.92" cy="64.70" r="10.00"/>
    <circle cx="242.85" cy="86.70" r="10.00"/>
  </g>
  <g style="fill:#DCEA1E" id="DemocraticParty">
    <circle cx="231.15" cy="109.01" r="10.00"/>
    <circle cx="291.32" cy="61.62" r="10.00"/>
    <circle cx="279.27" cy="84.86" r="10.00"/>
    <circle cx="267.36" cy="109.12" r="10.00"/>
    <circle cx="311.54" cy="84.59" r="10.00"/>
    <circle cx="298.38" cy="110.06" r="10.00"/>
    <circle cx="255.48" cy="135.75" r="10.00"/>
    <circle cx="327.10" cy="110.96" r="10.00"/>
    <circle cx="284.26" cy="137.73" r="10.00"/>
    <circle cx="311.23" cy="138.95" r="10.00"/>
    <circle cx="337.44" cy="139.77" r="10.00"/>
    <circle cx="266.93" cy="170.04" r="10.00"/>
  </g>
  <g style="fill:#C5981A" id="CommunalDemocracyParty">
    <circle cx="292.06" cy="170.03" r="10.00"/>
    <circle cx="317.14" cy="170.02" r="10.00"/>
    <circle cx="342.19" cy="170.01" r="10.00"/>
  </g>
</g>
</svg>
