<?xml version="1.0" encoding="UTF-8" standalone="no"?>
<svg xmlns:svg="http://www.w3.org/2000/svg"
xmlns="http://www.w3.org/2000/svg" version="1.1"
width="360.0" height="215.9">
<!-- Created with the Wikimedia westminster parliament diagram creator (http://tools.wmflabs.org/parliamentdiagram/westminsterinputform.html) -->
<g id="diagram">
  <g id="headbench">
  <g style="fill:#00529F" id="[[New Zealand National Party|National]]">
    <rect x="6.0294" y="98.6765" rx="0.00" ry="0.00" width="18.53" height="18.53"/>
  </g>
  </g>
  <g id="leftbench">
  <g style="fill:#D82A20" id="[[New Zealand Labour Party|Labour]]">
    <rect x="26.6176" y="67.7941" rx="0.00" ry="0.00" width="18.53" height="18.53"/>
    <rect x="26.6176" y="47.2059" rx="0.00" ry="0.00" width="18.53" height="18.53"/>
    <rect x="26.6176" y="26.6176" rx="0.00" ry="0.00" width="18.53" height="18.53"/>
    <rect x="26.6176" y="6.0294" rx="0.00" ry="0.00" width="18.53" height="18.53"/>
    <rect x="47.2059" y="67.7941" rx="0.00" ry="0.00" width="18.53" height="18.53"/>
    <rect x="47.2059" y="47.2059" rx="0.00" ry="0.00" width="18.53" height="18.53"/>
    <rect x="47.2059" y="26.6176" rx="0.00" ry="0.00" width="18.53" height="18.53"/>
    <rect x="47.2059" y="6.0294" rx="0.00" ry="0.00" width="18.53" height="18.53"/>
    <rect x="67.7941" y="67.7941" rx="0.00" ry="0.00" width="18.53" height="18.53"/>
    <rect x="67.7941" y="47.2059" rx="0.00" ry="0.00" width="18.53" height="18.53"/>
    <rect x="67.7941" y="26.6176" rx="0.00" ry="0.00" width="18.53" height="18.53"/>
    <rect x="67.7941" y="6.0294" rx="0.00" ry="0.00" width="18.53" height="18.53"/>
    <rect x="88.3824" y="67.7941" rx="0.00" ry="0.00" width="18.53" height="18.53"/>
    <rect x="88.3824" y="47.2059" rx="0.00" ry="0.00" width="18.53" height="18.53"/>
    <rect x="88.3824" y="26.6176" rx="0.00" ry="0.00" width="18.53" height="18.53"/>
    <rect x="88.3824" y="6.0294" rx="0.00" ry="0.00" width="18.53" height="18.53"/>
    <rect x="108.9706" y="67.7941" rx="0.00" ry="0.00" width="18.53" height="18.53"/>
    <rect x="108.9706" y="47.2059" rx="0.00" ry="0.00" width="18.53" height="18.53"/>
    <rect x="108.9706" y="26.6176" rx="0.00" ry="0.00" width="18.53" height="18.53"/>
    <rect x="108.9706" y="6.0294" rx="0.00" ry="0.00" width="18.53" height="18.53"/>
    <rect x="129.5588" y="67.7941" rx="0.00" ry="0.00" width="18.53" height="18.53"/>
    <rect x="129.5588" y="47.2059" rx="0.00" ry="0.00" width="18.53" height="18.53"/>
    <rect x="129.5588" y="26.6176" rx="0.00" ry="0.00" width="18.53" height="18.53"/>
    <rect x="129.5588" y="6.0294" rx="0.00" ry="0.00" width="18.53" height="18.53"/>
    <rect x="150.1471" y="67.7941" rx="0.00" ry="0.00" width="18.53" height="18.53"/>
    <rect x="150.1471" y="47.2059" rx="0.00" ry="0.00" width="18.53" height="18.53"/>
    <rect x="150.1471" y="26.6176" rx="0.00" ry="0.00" width="18.53" height="18.53"/>
    <rect x="150.1471" y="6.0294" rx="0.00" ry="0.00" width="18.53" height="18.53"/>
    <rect x="170.7353" y="67.7941" rx="0.00" ry="0.00" width="18.53" height="18.53"/>
    <rect x="170.7353" y="47.2059" rx="0.00" ry="0.00" width="18.53" height="18.53"/>
    <rect x="170.7353" y="26.6176" rx="0.00" ry="0.00" width="18.53" height="18.53"/>
    <rect x="170.7353" y="6.0294" rx="0.00" ry="0.00" width="18.53" height="18.53"/>
  </g>
  <g style="fill:#098137" id="[[Green Party of Aotearoa New Zealand|Green]]">
    <rect x="191.3235" y="67.7941" rx="0.00" ry="0.00" width="18.53" height="18.53"/>
    <rect x="191.3235" y="47.2059" rx="0.00" ry="0.00" width="18.53" height="18.53"/>
    <rect x="191.3235" y="26.6176" rx="0.00" ry="0.00" width="18.53" height="18.53"/>
    <rect x="191.3235" y="6.0294" rx="0.00" ry="0.00" width="18.53" height="18.53"/>
    <rect x="211.9118" y="67.7941" rx="0.00" ry="0.00" width="18.53" height="18.53"/>
    <rect x="211.9118" y="47.2059" rx="0.00" ry="0.00" width="18.53" height="18.53"/>
    <rect x="211.9118" y="26.6176" rx="0.00" ry="0.00" width="18.53" height="18.53"/>
    <rect x="211.9118" y="6.0294" rx="0.00" ry="0.00" width="18.53" height="18.53"/>
    <rect x="232.5000" y="67.7941" rx="0.00" ry="0.00" width="18.53" height="18.53"/>
    <rect x="232.5000" y="47.2059" rx="0.00" ry="0.00" width="18.53" height="18.53"/>
    <rect x="232.5000" y="26.6176" rx="0.00" ry="0.00" width="18.53" height="18.53"/>
    <rect x="232.5000" y="6.0294" rx="0.00" ry="0.00" width="18.53" height="18.53"/>
    <rect x="253.0882" y="67.7941" rx="0.00" ry="0.00" width="18.53" height="18.53"/>
    <rect x="253.0882" y="47.2059" rx="0.00" ry="0.00" width="18.53" height="18.53"/>
  </g>
  <g style="fill:#000000" id="[[New Zealand First|NZ First]]">
    <rect x="253.0882" y="26.6176" rx="0.00" ry="0.00" width="18.53" height="18.53"/>
    <rect x="253.0882" y="6.0294" rx="0.00" ry="0.00" width="18.53" height="18.53"/>
    <rect x="273.6765" y="67.7941" rx="0.00" ry="0.00" width="18.53" height="18.53"/>
    <rect x="273.6765" y="47.2059" rx="0.00" ry="0.00" width="18.53" height="18.53"/>
    <rect x="273.6765" y="26.6176" rx="0.00" ry="0.00" width="18.53" height="18.53"/>
    <rect x="273.6765" y="6.0294" rx="0.00" ry="0.00" width="18.53" height="18.53"/>
    <rect x="294.2647" y="67.7941" rx="0.00" ry="0.00" width="18.53" height="18.53"/>
    <rect x="294.2647" y="47.2059" rx="0.00" ry="0.00" width="18.53" height="18.53"/>
    <rect x="294.2647" y="26.6176" rx="0.00" ry="0.00" width="18.53" height="18.53"/>
    <rect x="294.2647" y="6.0294" rx="0.00" ry="0.00" width="18.53" height="18.53"/>
    <rect x="314.8529" y="67.7941" rx="0.00" ry="0.00" width="18.53" height="18.53"/>
  </g>
  </g>
  <g id="rightbench">
  <g style="fill:#00529F" id="[[New Zealand National Party|National]]">
    <rect x="26.6176" y="129.5588" rx="0.00" ry="0.00" width="18.53" height="18.53"/>
    <rect x="26.6176" y="150.1471" rx="0.00" ry="0.00" width="18.53" height="18.53"/>
    <rect x="26.6176" y="170.7353" rx="0.00" ry="0.00" width="18.53" height="18.53"/>
    <rect x="26.6176" y="191.3235" rx="0.00" ry="0.00" width="18.53" height="18.53"/>
    <rect x="47.2059" y="129.5588" rx="0.00" ry="0.00" width="18.53" height="18.53"/>
    <rect x="47.2059" y="150.1471" rx="0.00" ry="0.00" width="18.53" height="18.53"/>
    <rect x="47.2059" y="170.7353" rx="0.00" ry="0.00" width="18.53" height="18.53"/>
    <rect x="47.2059" y="191.3235" rx="0.00" ry="0.00" width="18.53" height="18.53"/>
    <rect x="67.7941" y="129.5588" rx="0.00" ry="0.00" width="18.53" height="18.53"/>
    <rect x="67.7941" y="150.1471" rx="0.00" ry="0.00" width="18.53" height="18.53"/>
    <rect x="67.7941" y="170.7353" rx="0.00" ry="0.00" width="18.53" height="18.53"/>
    <rect x="67.7941" y="191.3235" rx="0.00" ry="0.00" width="18.53" height="18.53"/>
    <rect x="88.3824" y="129.5588" rx="0.00" ry="0.00" width="18.53" height="18.53"/>
    <rect x="88.3824" y="150.1471" rx="0.00" ry="0.00" width="18.53" height="18.53"/>
    <rect x="88.3824" y="170.7353" rx="0.00" ry="0.00" width="18.53" height="18.53"/>
    <rect x="88.3824" y="191.3235" rx="0.00" ry="0.00" width="18.53" height="18.53"/>
    <rect x="108.9706" y="129.5588" rx="0.00" ry="0.00" width="18.53" height="18.53"/>
    <rect x="108.9706" y="150.1471" rx="0.00" ry="0.00" width="18.53" height="18.53"/>
    <rect x="108.9706" y="170.7353" rx="0.00" ry="0.00" width="18.53" height="18.53"/>
    <rect x="108.9706" y="191.3235" rx="0.00" ry="0.00" width="18.53" height="18.53"/>
    <rect x="129.5588" y="129.5588" rx="0.00" ry="0.00" width="18.53" height="18.53"/>
    <rect x="129.5588" y="150.1471" rx="0.00" ry="0.00" width="18.53" height="18.53"/>
    <rect x="129.5588" y="170.7353" rx="0.00" ry="0.00" width="18.53" height="18.53"/>
    <rect x="129.5588" y="191.3235" rx="0.00" ry="0.00" width="18.53" height="18.53"/>
    <rect x="150.1471" y="129.5588" rx="0.00" ry="0.00" width="18.53" height="18.53"/>
    <rect x="150.1471" y="150.1471" rx="0.00" ry="0.00" width="18.53" height="18.53"/>
    <rect x="150.1471" y="170.7353" rx="0.00" ry="0.00" width="18.53" height="18.53"/>
    <rect x="150.1471" y="191.3235" rx="0.00" ry="0.00" width="18.53" height="18.53"/>
    <rect x="170.7353" y="129.5588" rx="0.00" ry="0.00" width="18.53" height="18.53"/>
    <rect x="170.7353" y="150.1471" rx="0.00" ry="0.00" width="18.53" height="18.53"/>
    <rect x="170.7353" y="170.7353" rx="0.00" ry="0.00" width="18.53" height="18.53"/>
    <rect x="170.7353" y="191.3235" rx="0.00" ry="0.00" width="18.53" height="18.53"/>
    <rect x="191.3235" y="129.5588" rx="0.00" ry="0.00" width="18.53" height="18.53"/>
    <rect x="191.3235" y="150.1471" rx="0.00" ry="0.00" width="18.53" height="18.53"/>
    <rect x="191.3235" y="170.7353" rx="0.00" ry="0.00" width="18.53" height="18.53"/>
    <rect x="191.3235" y="191.3235" rx="0.00" ry="0.00" width="18.53" height="18.53"/>
    <rect x="211.9118" y="129.5588" rx="0.00" ry="0.00" width="18.53" height="18.53"/>
    <rect x="211.9118" y="150.1471" rx="0.00" ry="0.00" width="18.53" height="18.53"/>
    <rect x="211.9118" y="170.7353" rx="0.00" ry="0.00" width="18.53" height="18.53"/>
    <rect x="211.9118" y="191.3235" rx="0.00" ry="0.00" width="18.53" height="18.53"/>
    <rect x="232.5000" y="129.5588" rx="0.00" ry="0.00" width="18.53" height="18.53"/>
    <rect x="232.5000" y="150.1471" rx="0.00" ry="0.00" width="18.53" height="18.53"/>
    <rect x="232.5000" y="170.7353" rx="0.00" ry="0.00" width="18.53" height="18.53"/>
    <rect x="232.5000" y="191.3235" rx="0.00" ry="0.00" width="18.53" height="18.53"/>
    <rect x="253.0882" y="129.5588" rx="0.00" ry="0.00" width="18.53" height="18.53"/>
    <rect x="253.0882" y="150.1471" rx="0.00" ry="0.00" width="18.53" height="18.53"/>
    <rect x="253.0882" y="170.7353" rx="0.00" ry="0.00" width="18.53" height="18.53"/>
    <rect x="253.0882" y="191.3235" rx="0.00" ry="0.00" width="18.53" height="18.53"/>
    <rect x="273.6765" y="129.5588" rx="0.00" ry="0.00" width="18.53" height="18.53"/>
    <rect x="273.6765" y="150.1471" rx="0.00" ry="0.00" width="18.53" height="18.53"/>
    <rect x="273.6765" y="170.7353" rx="0.00" ry="0.00" width="18.53" height="18.53"/>
    <rect x="273.6765" y="191.3235" rx="0.00" ry="0.00" width="18.53" height="18.53"/>
    <rect x="294.2647" y="129.5588" rx="0.00" ry="0.00" width="18.53" height="18.53"/>
    <rect x="294.2647" y="150.1471" rx="0.00" ry="0.00" width="18.53" height="18.53"/>
    <rect x="294.2647" y="170.7353" rx="0.00" ry="0.00" width="18.53" height="18.53"/>
    <rect x="294.2647" y="191.3235" rx="0.00" ry="0.00" width="18.53" height="18.53"/>
    <rect x="314.8529" y="129.5588" rx="0.00" ry="0.00" width="18.53" height="18.53"/>
    <rect x="314.8529" y="150.1471" rx="0.00" ry="0.00" width="18.53" height="18.53"/>
    <rect x="314.8529" y="170.7353" rx="0.00" ry="0.00" width="18.53" height="18.53"/>
  </g>
  <g style="fill:#FDE401" id="[[ACT New Zealand|ACT]]">
    <rect x="314.8529" y="191.3235" rx="0.00" ry="0.00" width="18.53" height="18.53"/>
  </g>
  <g style="fill:#501557" id="[[United Future]]">
    <rect x="335.4412" y="129.5588" rx="0.00" ry="0.00" width="18.53" height="18.53"/>
  </g>
  <g style="fill:#EF4A42" id="[[Māori Party|Māori]]">
    <rect x="335.4412" y="150.1471" rx="0.00" ry="0.00" width="18.53" height="18.53"/>
    <rect x="335.4412" y="170.7353" rx="0.00" ry="0.00" width="18.53" height="18.53"/>
  </g>
  </g>
  <g id="centerbench">
  </g>
</g>
</svg>
