<?xml version="1.0" encoding="UTF-8" standalone="no"?>
<svg xmlns:svg="http://www.w3.org/2000/svg"
xmlns="http://www.w3.org/2000/svg" version="1.1"
width="360" height="185">
<!-- Created with the Wikimedia parliament diagram creator (http://tools.wmflabs.org/parliamentdiagram/parliamentinputform.html) -->
<g>
<text x="175" y="175" style="font-size:36px;font-weight:bold;text-align:center;text-anchor:middle;font-family:Sans">29</text>
  <g style="fill:#6B6B6B" id="Vacant">
  </g>
  <g style="fill:#0000FF" id="Democrats">
    <circle cx="22.23" cy="166.70" r="13.33"/>
    <circle cx="55.71" cy="166.72" r="13.33"/>
    <circle cx="89.29" cy="166.76" r="13.33"/>
    <circle cx="31.51" cy="125.05" r="13.33"/>
  </g>
  <g style="fill:#FF0000" id="Republicans">
    <circle cx="66.48" cy="127.68" r="13.33"/>
    <circle cx="105.41" cy="126.72" r="13.33"/>
    <circle cx="51.57" cy="87.40" r="13.33"/>
    <circle cx="89.16" cy="94.13" r="13.33"/>
    <circle cx="80.96" cy="56.46" r="13.33"/>
    <circle cx="121.38" cy="69.60" r="13.33"/>
    <circle cx="138.05" cy="98.49" r="13.33"/>
    <circle cx="117.55" cy="34.50" r="13.33"/>
    <circle cx="159.75" cy="56.65" r="13.33"/>
    <circle cx="158.67" cy="23.11" r="13.33"/>
    <circle cx="180.00" cy="88.33" r="13.33"/>
    <circle cx="201.33" cy="23.11" r="13.33"/>
    <circle cx="200.25" cy="56.65" r="13.33"/>
    <circle cx="242.45" cy="34.50" r="13.33"/>
    <circle cx="221.95" cy="98.49" r="13.33"/>
    <circle cx="238.62" cy="69.60" r="13.33"/>
    <circle cx="279.04" cy="56.46" r="13.33"/>
    <circle cx="270.84" cy="94.13" r="13.33"/>
    <circle cx="308.43" cy="87.40" r="13.33"/>
    <circle cx="254.59" cy="126.72" r="13.33"/>
    <circle cx="293.52" cy="127.68" r="13.33"/>
    <circle cx="328.49" cy="125.05" r="13.33"/>
    <circle cx="270.71" cy="166.76" r="13.33"/>
    <circle cx="304.29" cy="166.72" r="13.33"/>
    <circle cx="337.77" cy="166.70" r="13.33"/>
  </g>
  <g style="fill:#C9C9C9" id="Independents">
  </g>
</g>
</svg>
